<svg xmlns="http://www.w3.org/2000/svg" xmlns:xlink="http://www.w3.org/1999/xlink" width="1123" zoomAndPan="magnify" viewBox="0 0 842.25 595.499986" height="794" preserveAspectRatio="xMidYMid meet" version="1.0"><defs><g/><clipPath id="6ca9e350d2"><path d="M 0 0.015625 L 841.5 0.015625 L 841.5 594.984375 L 0 594.984375 Z M 0 0.015625 " clip-rule="nonzero"/></clipPath><clipPath id="29ddc25006"><path d="M 0 0.015625 L 841.5 0.015625 L 841.5 594.984375 L 0 594.984375 Z M 0 0.015625 " clip-rule="nonzero"/></clipPath><clipPath id="e33181433c"><rect x="0" width="827" y="0" height="320"/></clipPath><clipPath id="5c702d77da"><rect x="0" width="842" y="0" height="595"/></clipPath></defs><g clip-path="url(#6ca9e350d2)"><path fill="#ffffff" d="M 0 0.015625 L 841.5 0.015625 L 841.5 594.984375 L 0 594.984375 Z M 0 0.015625 " fill-opacity="1" fill-rule="nonzero"/><g transform="matrix(1, 0, 0, 1, 0, -0.000000000000000137)"><g clip-path="url(#5c702d77da)"><g clip-path="url(#29ddc25006)"><path fill="#ffffff" d="M 0 0.015625 L 841.816406 0.015625 L 841.816406 595.210938 L 0 595.210938 Z M 0 0.015625 " fill-opacity="1" fill-rule="nonzero"/></g><g transform="matrix(1, 0, 0, 1, 7, 133)"><g clip-path="url(#e33181433c)"><g fill="#1a242f" fill-opacity="1"><g transform="translate(1.501836, 185.500767)"><g><path d="M 131.953125 -103.0625 L 49.21875 -103.0625 L 49.21875 -16.59375 L 131.953125 -16.59375 L 131.953125 -46.5 L 151.9375 -42.328125 L 151.9375 -28.21875 C 151.9375 -17.226562 150.015625 -9.773438 146.171875 -5.859375 C 142.335938 -1.953125 135.003906 0 124.171875 0 L 57.34375 0 C 46.507812 0 39.132812 -1.972656 35.21875 -5.921875 C 31.300781 -9.878906 29.34375 -17.3125 29.34375 -28.21875 L 29.34375 -91.09375 C 29.34375 -102 31.300781 -109.425781 35.21875 -113.375 C 39.132812 -117.332031 46.507812 -119.3125 57.34375 -119.3125 L 124.171875 -119.3125 C 135.003906 -119.3125 142.335938 -117.351562 146.171875 -113.4375 C 150.015625 -109.53125 151.9375 -102.082031 151.9375 -91.09375 L 151.9375 -79.796875 L 131.953125 -76.078125 Z M 131.953125 -103.0625 "/></g></g><g transform="translate(174.874994, 185.500767)"><g><path d="M 30.921875 0 L 30.921875 -119.3125 L 50.90625 -119.3125 L 50.90625 -70.546875 L 144.9375 -70.546875 L 144.9375 -119.3125 L 164.796875 -119.3125 L 164.796875 0 L 144.9375 0 L 144.9375 -54.0625 L 50.90625 -54.0625 L 50.90625 0 Z M 30.921875 0 "/></g></g><g transform="translate(370.709909, 185.500767)"><g><path d="M 30.921875 0 L 30.921875 -119.3125 L 50.90625 -119.3125 L 50.90625 0 Z M 30.921875 0 "/></g></g><g transform="translate(452.542943, 185.500767)"><g><path d="M 119.3125 -103.84375 L 50.90625 -103.84375 L 50.90625 -61.96875 L 119.3125 -61.96875 C 124.28125 -61.96875 127.664062 -62.867188 129.46875 -64.671875 C 131.269531 -66.484375 132.171875 -69.644531 132.171875 -74.15625 L 132.171875 -91.546875 C 132.171875 -96.054688 131.25 -99.234375 129.40625 -101.078125 C 127.5625 -102.921875 124.195312 -103.84375 119.3125 -103.84375 Z M 30.921875 0 L 30.921875 -119.3125 L 127.09375 -119.3125 C 136.050781 -119.3125 142.503906 -117.484375 146.453125 -113.828125 C 150.410156 -110.179688 152.390625 -104.296875 152.390625 -96.171875 L 152.390625 -69.53125 C 152.390625 -61.476562 150.410156 -55.625 146.453125 -51.96875 C 142.503906 -48.320312 136.050781 -46.5 127.09375 -46.5 L 109.609375 -46.5 L 164.125 0 L 134.546875 0 L 86.015625 -46.5 L 50.90625 -46.5 L 50.90625 0 Z M 30.921875 0 "/></g></g><g transform="translate(628.73793, 185.500767)"><g><path d="M 49.21875 -16.59375 L 147.984375 -16.59375 L 147.984375 -103.0625 L 49.21875 -103.0625 Z M 29.34375 -91.09375 C 29.34375 -101.925781 31.28125 -109.335938 35.15625 -113.328125 C 39.03125 -117.316406 46.425781 -119.3125 57.34375 -119.3125 L 139.859375 -119.3125 C 150.617188 -119.3125 157.9375 -117.332031 161.8125 -113.375 C 165.6875 -109.425781 167.625 -102 167.625 -91.09375 L 167.625 -28.21875 C 167.625 -17.226562 165.6875 -9.773438 161.8125 -5.859375 C 157.9375 -1.953125 150.617188 0 139.859375 0 L 57.34375 0 C 46.425781 0 39.03125 -1.992188 35.15625 -5.984375 C 31.28125 -9.972656 29.34375 -17.382812 29.34375 -28.21875 Z M 29.34375 -91.09375 "/></g></g></g><g fill="#1a242f" fill-opacity="1"><g transform="translate(66.209104, 295.55074)"><g><path d="M 21.734375 0 L 3.1875 -51.171875 L 11.8125 -51.171875 L 25.65625 -10.5 L 40.765625 -51.171875 L 45.984375 -51.171875 L 60.5625 -10.5 L 74.546875 -51.171875 L 82.203125 -51.171875 L 63.65625 0 L 57.3125 0 L 43.125 -38.671875 L 28.46875 0 Z M 21.734375 0 "/></g></g></g><g fill="#1a242f" fill-opacity="1"><g transform="translate(151.550678, 295.55074)"><g><path d="M 13.265625 0 L 13.265625 -51.171875 L 62.546875 -51.171875 L 62.546875 -44.296875 L 21.828125 -44.296875 L 21.828125 -30.0625 L 46.71875 -30.0625 L 46.71875 -23.28125 L 21.828125 -23.28125 L 21.828125 -7.015625 L 62.9375 -7.015625 L 62.9375 0 Z M 13.265625 0 "/></g></g></g><g fill="#1a242f" fill-opacity="1"><g transform="translate(221.547221, 295.55074)"><g><path d="M 57.03125 -13.0625 L 57.03125 -17.328125 C 57.03125 -19.648438 56.617188 -21.253906 55.796875 -22.140625 C 54.972656 -23.035156 53.492188 -23.484375 51.359375 -23.484375 L 21.828125 -23.484375 L 21.828125 -7.015625 L 51.359375 -7.015625 C 53.523438 -7.015625 55.007812 -7.453125 55.8125 -8.328125 C 56.625 -9.203125 57.03125 -10.78125 57.03125 -13.0625 Z M 56.59375 -34.703125 L 56.59375 -39.84375 C 56.59375 -41.519531 56.226562 -42.679688 55.5 -43.328125 C 54.769531 -43.972656 53.390625 -44.296875 51.359375 -44.296875 L 21.828125 -44.296875 L 21.828125 -30.15625 L 51.359375 -30.15625 C 53.328125 -30.15625 54.691406 -30.492188 55.453125 -31.171875 C 56.210938 -31.847656 56.59375 -33.023438 56.59375 -34.703125 Z M 13.265625 0 L 13.265625 -51.171875 L 54.515625 -51.171875 C 58.347656 -51.171875 61.109375 -50.382812 62.796875 -48.8125 C 64.492188 -47.25 65.34375 -44.726562 65.34375 -41.25 L 65.34375 -35.296875 C 65.34375 -32.546875 64.65625 -30.492188 63.28125 -29.140625 C 61.914062 -27.785156 59.765625 -26.929688 56.828125 -26.578125 C 59.703125 -26.222656 61.890625 -25.195312 63.390625 -23.5 C 64.890625 -21.800781 65.640625 -19.488281 65.640625 -16.5625 L 65.640625 -10.015625 C 65.640625 -6.628906 64.46875 -4.113281 62.125 -2.46875 C 59.789062 -0.820312 56.234375 0 51.453125 0 Z M 13.265625 0 "/></g></g></g><g fill="#1a242f" fill-opacity="1"><g transform="translate(297.497834, 295.55074)"><g/></g></g><g fill="#1a242f" fill-opacity="1"><g transform="translate(334.577594, 295.55074)"><g><path d="M 40.234375 -44.203125 L 21.828125 -44.203125 L 21.828125 -7.109375 L 40.234375 -7.109375 C 48.523438 -7.109375 54.378906 -8.5625 57.796875 -11.46875 C 61.222656 -14.375 62.9375 -19.1875 62.9375 -25.90625 C 62.9375 -32.382812 61.191406 -37.050781 57.703125 -39.90625 C 54.210938 -42.769531 48.390625 -44.203125 40.234375 -44.203125 Z M 41.4375 -51.171875 C 46.144531 -51.171875 50.054688 -50.851562 53.171875 -50.21875 C 56.285156 -49.59375 58.925781 -48.585938 61.09375 -47.203125 C 64.382812 -45.035156 66.972656 -42.0625 68.859375 -38.28125 C 70.742188 -34.507812 71.6875 -30.382812 71.6875 -25.90625 C 71.6875 -21.125 70.757812 -16.820312 68.90625 -13 C 67.050781 -9.175781 64.445312 -6.164062 61.09375 -3.96875 C 58.988281 -2.613281 56.367188 -1.613281 53.234375 -0.96875 C 50.109375 -0.320312 46.175781 0 41.4375 0 L 13.265625 0 L 13.265625 -51.171875 Z M 41.4375 -51.171875 "/></g></g></g><g fill="#1a242f" fill-opacity="1"><g transform="translate(414.691223, 295.55074)"><g><path d="M 13.265625 0 L 13.265625 -51.171875 L 62.546875 -51.171875 L 62.546875 -44.296875 L 21.828125 -44.296875 L 21.828125 -30.0625 L 46.71875 -30.0625 L 46.71875 -23.28125 L 21.828125 -23.28125 L 21.828125 -7.015625 L 62.9375 -7.015625 L 62.9375 0 Z M 13.265625 0 "/></g></g></g><g fill="#1a242f" fill-opacity="1"><g transform="translate(484.687779, 295.55074)"><g><path d="M 56.921875 -44.203125 L 20.71875 -44.203125 L 20.71875 -29.921875 L 52.953125 -29.921875 C 57.503906 -29.921875 60.617188 -29.078125 62.296875 -27.390625 C 63.972656 -25.710938 64.8125 -22.535156 64.8125 -17.859375 L 64.8125 -12.109375 C 64.8125 -7.390625 63.988281 -4.191406 62.34375 -2.515625 C 60.695312 -0.835938 57.566406 0 52.953125 0 L 23.09375 0 C 18.445312 0 15.28125 -0.84375 13.59375 -2.53125 C 11.914062 -4.226562 11.078125 -7.421875 11.078125 -12.109375 L 11.078125 -13.5 L 19.03125 -15.34375 L 19.03125 -7.109375 L 57.125 -7.109375 L 57.125 -22.515625 L 24.984375 -22.515625 C 20.335938 -22.515625 17.1875 -23.359375 15.53125 -25.046875 C 13.882812 -26.742188 13.0625 -29.929688 13.0625 -34.609375 L 13.0625 -39.0625 C 13.0625 -43.738281 13.882812 -46.925781 15.53125 -48.625 C 17.1875 -50.320312 20.335938 -51.171875 24.984375 -51.171875 L 52.234375 -51.171875 C 56.785156 -51.171875 59.921875 -50.335938 61.640625 -48.671875 C 63.367188 -47.015625 64.234375 -44.101562 64.234375 -39.9375 L 64.234375 -38.875 L 56.921875 -36.796875 Z M 56.921875 -44.203125 "/></g></g></g><g fill="#1a242f" fill-opacity="1"><g transform="translate(562.090589, 295.55074)"><g><path d="M 13.265625 0 L 13.265625 -51.171875 L 21.828125 -51.171875 L 21.828125 0 Z M 13.265625 0 "/></g></g></g><g fill="#1a242f" fill-opacity="1"><g transform="translate(597.185655, 295.55074)"><g><path d="M 61.1875 -44.203125 L 21.109375 -44.203125 L 21.109375 -7.109375 L 61.1875 -7.109375 L 61.1875 -22.125 L 40.46875 -22.125 L 40.46875 -28.65625 L 69.703125 -28.65625 L 69.703125 -12.109375 C 69.703125 -7.421875 68.863281 -4.226562 67.1875 -2.53125 C 65.507812 -0.84375 62.347656 0 57.703125 0 L 24.59375 0 C 19.914062 0 16.742188 -0.851562 15.078125 -2.5625 C 13.421875 -4.269531 12.59375 -7.453125 12.59375 -12.109375 L 12.59375 -39.0625 C 12.59375 -43.707031 13.421875 -46.882812 15.078125 -48.59375 C 16.742188 -50.3125 19.914062 -51.171875 24.59375 -51.171875 L 57.703125 -51.171875 C 62.285156 -51.171875 65.429688 -50.335938 67.140625 -48.671875 C 68.847656 -47.015625 69.703125 -44.003906 69.703125 -39.640625 L 69.703125 -38.390625 L 61.1875 -36.6875 Z M 61.1875 -44.203125 "/></g></g></g><g fill="#1a242f" fill-opacity="1"><g transform="translate(678.170597, 295.55074)"><g><path d="M 13.265625 0 L 13.265625 -51.171875 L 18.640625 -51.171875 L 56.921875 -16.9375 C 57.796875 -16.164062 58.722656 -15.226562 59.703125 -14.125 C 60.691406 -13.03125 61.703125 -11.820312 62.734375 -10.5 C 62.472656 -12.144531 62.28125 -13.863281 62.15625 -15.65625 C 62.03125 -17.445312 61.96875 -19.925781 61.96875 -23.09375 L 61.96875 -51.171875 L 69.8125 -51.171875 L 69.8125 0 L 65.015625 0 L 25.703125 -35.578125 C 25.515625 -35.742188 25.222656 -36.003906 24.828125 -36.359375 C 22.890625 -38.097656 21.457031 -39.757812 20.53125 -41.34375 C 20.71875 -39.789062 20.859375 -38.132812 20.953125 -36.375 C 21.054688 -34.613281 21.109375 -32.539062 21.109375 -30.15625 L 21.109375 0 Z M 13.265625 0 "/></g></g></g><path stroke-linecap="butt" transform="matrix(0.846538, 0.000000000000000052, -0.000000000000000052, 0.846538, 21.50511, 214.94935)" fill="none" stroke-linejoin="miter" d="M -0.00142222 1.997872 L 926.653943 1.997872 " stroke="#000000" stroke-width="4" stroke-opacity="1" stroke-miterlimit="4"/></g></g></g></g></g></svg>